<?xml version="1.0" encoding="utf-8"?>
<svg viewBox="0 0 500 500" xmlns="http://www.w3.org/2000/svg" xmlns:bx="https://boxy-svg.com">
  <defs>
    <linearGradient id="color-0" bx:pinned="true">
      <stop style="stop-color: #c6ffdd;" offset="0"/>
      <stop style="stop-color: #fbd786;" offset="0.5"/>
      <stop style="stop-color: #f7797d;" offset="1"/>
    </linearGradient>
    <linearGradient id="color-1" bx:pinned="true">
      <stop style="stop-color: #ff0099;" offset="0"/>
      <stop style="stop-color: #493240;" offset="1"/>
    </linearGradient>
    <linearGradient id="color-2" bx:pinned="true">
      <stop style="stop-color: rgb(167, 255, 120);" offset="0.18"/>
      <stop style="stop-color: #78ffd6;" offset="1"/>
    </linearGradient>
  </defs>
  <g transform="matrix(0.997031, 0.076996, -0.076996, 0.997031, -85.372025, -37.101997)"/>
  <g transform="matrix(0.997031, 0.076996, -0.076996, 0.997031, -85.372025, -37.101997)"/>
  <g transform="matrix(0.997031, 0.076996, -0.076996, 0.997031, -85.372025, -37.101997)"/>
  <g transform="matrix(0.997031, 0.076996, -0.076996, 0.997031, -85.372025, -37.101997)"/>
  <g transform="matrix(0.997031, 0.076996, -0.076996, 0.997031, -85.372025, -37.101997)"/>
  <g transform="matrix(0.997031, 0.076996, -0.076996, 0.997031, -85.372025, -37.101997)"/>
  <g transform="matrix(0.997031, 0.076996, -0.076996, 0.997031, -85.372025, -37.101997)"/>
  <g transform="matrix(0.997031, 0.076996, -0.076996, 0.997031, -85.372025, -37.101997)"/>
  <g transform="matrix(0.997031, 0.076996, -0.076996, 0.997031, -85.372025, -37.101997)"/>
  <g transform="matrix(0.997031, 0.076996, -0.076996, 0.997031, -85.372025, -37.101997)"/>
  <g transform="matrix(0.997031, 0.076996, -0.076996, 0.997031, -85.372025, -37.101997)"/>
  <g transform="matrix(0.997031, 0.076996, -0.076996, 0.997031, -85.372025, -37.101997)"/>
  <g transform="matrix(0.997031, 0.076996, -0.076996, 0.997031, -85.372025, -37.101997)"/>
  <g transform="matrix(0.997031, 0.076996, -0.076996, 0.997031, -85.372025, -37.101997)"/>
  <g transform="matrix(0.997031, 0.076996, -0.076996, 0.997031, -85.372025, -37.101997)"/>
  <rect id="_Transparent_Rectangle" style="fill:none;" width="32" height="32" x="100" y="66.131"/>
  <g transform="matrix(3.893212, 0, 0, 3.87903, 123.855797, 89.998032)" style="">
    <g>
      <path d="M 59 20 L 40 20 L 40 1 C 40 0.4 39.6 0 39 0 L 21 0 C 20.4 0 20 0.4 20 1 L 20 20 L 1 20 C 0.4 20 0 20.4 0 21 L 0 39 C 0 39.6 0.4 40 1 40 L 20 40 L 20 59 C 20 59.6 20.4 60 21 60 L 36.372 60 L 36.153 57.78 L 22 58 L 22 39 C 22 38.4 21.6 38 21 38 L 2 38 L 2 22 L 21 22 C 21.6 22 22 21.6 22 21 L 22 2 L 38 2 L 38 21 C 38 21.6 38.4 22 39 22 L 58 22 L 58 39 L 60 39 L 60 21 C 60 20.4 59.6 20 59 20 Z"/>
      <rect x="24" y="4" width="2" height="2"/>
      <rect x="4" y="24" width="2" height="2"/>
      <rect x="54" y="24" width="2" height="2"/>
      <rect x="4" y="34" width="2" height="2"/>
      <rect x="24" y="54" width="2" height="2"/>
      <rect x="34" y="4" width="2" height="2"/>
      <rect x="42" y="16" width="2" height="2"/>
      <rect x="46" y="16" width="2" height="2"/>
      <rect x="50" y="16" width="2" height="2"/>
      <rect x="16" y="16" width="2" height="2"/>
      <rect x="12" y="16" width="2" height="2"/>
      <rect x="8" y="16" width="2" height="2"/>
      <rect x="16" y="42" width="2" height="2"/>
      <rect x="12" y="42" width="2" height="2"/>
      <rect x="16" y="46" width="2" height="2"/>
      <rect x="16" y="50" width="2" height="2"/>
      <rect x="12" y="46" width="2" height="2"/>
      <rect x="8" y="42" width="2" height="2"/>
      <rect x="16" y="12" width="2" height="2"/>
      <rect x="16" y="8" width="2" height="2"/>
      <rect x="12" y="12" width="2" height="2"/>
      <rect x="46" y="12" width="2" height="2"/>
      <rect x="42" y="12" width="2" height="2"/>
      <rect x="42" y="8" width="2" height="2"/>
    </g>
  </g>
  <g transform="matrix(3.893212, 0, 0, 3.87903, 209.801254, 134.247162)" style=""/>
  <g transform="matrix(3.893212, 0, 0, 3.87903, 209.801254, 134.247162)" style=""/>
  <g transform="matrix(3.893212, 0, 0, 3.87903, 209.801254, 134.247162)" style=""/>
  <g transform="matrix(3.893212, 0, 0, 3.87903, 209.801254, 134.247162)" style=""/>
  <g transform="matrix(3.893212, 0, 0, 3.87903, 209.801254, 134.247162)" style=""/>
  <g transform="matrix(3.893212, 0, 0, 3.87903, 209.801254, 134.247162)" style=""/>
  <g transform="matrix(3.893212, 0, 0, 3.87903, 209.801254, 134.247162)" style=""/>
  <g transform="matrix(3.893212, 0, 0, 3.87903, 209.801254, 134.247162)" style=""/>
  <g transform="matrix(3.893212, 0, 0, 3.87903, 209.801254, 134.247162)" style=""/>
  <g transform="matrix(3.893212, 0, 0, 3.87903, 209.801254, 134.247162)" style=""/>
  <g transform="matrix(3.893212, 0, 0, 3.87903, 209.801254, 134.247162)" style=""/>
  <g transform="matrix(3.893212, 0, 0, 3.87903, 209.801254, 134.247162)" style=""/>
  <g transform="matrix(3.893212, 0, 0, 3.87903, 209.801254, 134.247162)" style=""/>
  <g transform="matrix(3.893212, 0, 0, 3.87903, 209.801254, 134.247162)" style=""/>
  <g transform="matrix(3.893212, 0, 0, 3.87903, 209.801254, 134.247162)" style=""/>
  <path id="machine--learning--05_1_" d="M 303.38 296.966 C 307.226 296.966 310.934 296.192 314.314 294.815 C 317.694 293.439 320.748 291.46 323.285 289.05 C 325.801 286.615 327.871 283.679 329.312 280.427 C 330.753 277.176 331.565 273.609 331.565 269.914 C 331.565 266.216 330.747 262.655 329.303 259.408 C 327.86 256.161 325.791 253.228 323.288 250.784 C 320.744 248.389 317.69 246.409 314.311 245.028 C 310.932 243.646 307.227 242.864 303.38 242.864 C 299.534 242.864 295.831 243.645 292.453 245.025 C 289.076 246.405 286.024 248.383 283.479 250.778 C 280.977 253.221 278.906 256.156 277.46 259.405 C 276.015 262.653 275.195 266.216 275.195 269.914 C 275.195 273.613 276.013 277.174 277.457 280.422 C 278.9 283.67 280.97 286.604 283.472 289.047 C 286.017 291.442 289.071 293.422 292.45 294.803 C 295.829 296.184 299.533 296.966 303.38 296.966 Z M 290.935 288.992 L 290.935 287.422 L 290.935 285.852 C 290.92 284.523 291.125 283.274 291.533 282.106 C 291.94 280.938 292.55 279.852 293.344 278.846 C 294.113 277.836 295.023 276.964 296.073 276.247 C 297.122 275.53 298.312 274.967 299.642 274.575 L 299.64 274.561 L 299.637 274.547 C 299.77 274.505 299.93 274.446 300.095 274.373 C 300.259 274.3 300.427 274.213 300.575 274.113 C 300.642 274.05 300.687 274.004 300.723 273.965 C 300.759 273.927 300.786 273.895 300.816 273.859 C 300.844 273.829 300.868 273.802 300.896 273.77 C 300.923 273.737 300.954 273.699 300.996 273.644 C 301.065 273.534 301.13 273.406 301.184 273.283 C 301.238 273.161 301.28 273.044 301.303 272.957 L 301.762 271.189 L 302.221 269.421 L 301.504 270.138 L 300.786 270.856 C 300.581 270.685 300.422 270.567 300.311 270.489 C 300.2 270.41 300.138 270.371 300.128 270.36 C 299.537 270.064 299.029 269.72 298.588 269.319 C 298.147 268.917 297.774 268.459 297.452 267.934 C 297.116 267.417 296.872 266.893 296.712 266.344 C 296.552 265.796 296.476 265.222 296.476 264.605 C 296.476 263.669 296.647 262.82 296.983 262.05 C 297.32 261.28 297.822 260.59 298.485 259.973 C 299.132 259.334 299.862 258.848 300.676 258.522 C 301.491 258.196 302.392 258.03 303.38 258.03 C 304.368 258.03 305.269 258.197 306.084 258.524 C 306.899 258.85 307.629 259.336 308.276 259.974 C 308.939 260.591 309.441 261.281 309.777 262.051 C 310.114 262.82 310.284 263.669 310.284 264.605 C 310.284 265.222 310.208 265.796 310.048 266.345 C 309.888 266.894 309.644 267.418 309.308 267.936 C 309.09 268.292 308.847 268.618 308.575 268.916 C 308.304 269.214 308.003 269.485 307.668 269.731 L 307.799 268.248 L 307.93 266.766 L 307.003 268.601 L 306.075 270.436 L 305.086 268.993 L 304.097 267.551 L 304.654 269.767 L 305.211 271.983 L 304.108 273.745 L 303.005 275.508 L 304.255 274.599 L 305.504 273.69 L 305.92 277.532 L 306.336 281.374 L 306.733 277.976 L 307.13 274.579 C 308.458 274.97 309.644 275.532 310.69 276.248 C 311.737 276.964 312.645 277.835 313.416 278.847 C 314.211 279.852 314.82 280.936 315.227 282.101 C 315.635 283.266 315.84 284.512 315.825 285.842 L 315.825 287.416 L 315.825 288.991 C 314.956 289.515 314.104 289.97 313.197 290.372 C 312.289 290.773 311.326 291.123 310.232 291.438 C 309.137 291.764 308.027 292.009 306.888 292.172 C 305.75 292.335 304.584 292.417 303.38 292.417 C 302.176 292.417 301.011 292.334 299.872 292.17 C 298.733 292.006 297.621 291.761 296.524 291.437 C 295.428 291.118 294.465 290.769 293.559 290.368 C 292.653 289.967 291.803 289.515 290.935 288.992 Z M 303.38 247.411 C 306.663 247.411 309.758 248.021 312.565 249.153 C 315.372 250.286 317.891 251.94 320.025 254.029 C 322.202 256.068 323.922 258.473 325.098 261.15 C 326.273 263.828 326.905 266.78 326.905 269.914 C 326.905 271.617 326.717 273.249 326.35 274.818 C 325.984 276.387 325.439 277.893 324.727 279.344 C 324.185 280.466 323.558 281.526 322.848 282.524 C 322.139 283.523 321.347 284.46 320.475 285.337 C 320.414 283.858 320.142 282.397 319.696 281.01 C 319.25 279.623 318.629 278.309 317.87 277.123 C 317.159 276.068 316.31 275.075 315.348 274.176 C 314.385 273.277 313.309 272.474 312.145 271.8 C 312.509 271.388 312.845 270.95 313.147 270.498 C 313.449 270.047 313.716 269.581 313.943 269.114 C 314.25 268.432 314.502 267.693 314.676 266.93 C 314.85 266.167 314.948 265.381 314.948 264.605 C 314.948 263.101 314.592 261.629 313.987 260.283 C 313.382 258.937 312.528 257.718 311.533 256.72 C 310.496 255.769 309.237 254.96 307.849 254.388 C 306.46 253.816 304.941 253.482 303.384 253.482 C 301.831 253.482 300.309 253.811 298.917 254.38 C 297.524 254.95 296.261 255.761 295.227 256.727 C 294.216 257.722 293.365 258.942 292.766 260.288 C 292.166 261.634 291.82 263.106 291.82 264.605 C 291.82 265.38 291.919 266.17 292.095 266.936 C 292.272 267.703 292.525 268.446 292.833 269.128 C 293.158 269.798 293.424 270.262 293.7 270.66 C 293.976 271.059 294.261 271.392 294.623 271.802 C 293.461 272.477 292.444 273.192 291.509 274.048 C 290.575 274.904 289.723 275.899 288.891 277.133 C 288.13 278.32 287.51 279.633 287.066 281.019 C 286.621 282.404 286.351 283.863 286.292 285.344 C 285.416 284.466 284.62 283.527 283.908 282.527 C 283.196 281.526 282.569 280.464 282.032 279.341 C 281.315 277.895 280.771 276.39 280.406 274.821 C 280.041 273.252 279.855 271.618 279.855 269.914 C 279.855 266.779 280.488 263.826 281.666 261.146 C 282.843 258.466 284.566 256.06 286.743 254.021 C 288.876 251.932 291.394 250.28 294.199 249.149 C 297.004 248.019 300.097 247.411 303.38 247.411 Z M 353.243 276.489 C 352.328 276.489 351.412 276.665 350.557 276.971 C 349.702 277.277 348.908 277.712 348.236 278.229 C 347.694 278.679 347.197 279.224 346.775 279.831 C 346.353 280.438 346.006 281.105 345.76 281.798 L 342.356 281.798 L 338.951 281.798 L 338.951 269.914 L 338.951 258.03 L 342.356 258.03 L 345.76 258.03 C 346.004 258.724 346.351 259.391 346.772 259.997 C 347.193 260.603 347.689 261.148 348.232 261.597 C 348.901 262.111 349.696 262.547 350.552 262.854 C 351.408 263.161 352.327 263.34 353.243 263.34 C 354.285 263.34 355.318 263.112 356.267 262.722 C 357.216 262.333 358.08 261.783 358.782 261.139 C 359.46 260.461 360.042 259.62 360.456 258.696 C 360.869 257.772 361.113 256.765 361.113 255.756 C 361.113 254.747 360.871 253.742 360.459 252.82 C 360.047 251.898 359.467 251.059 358.79 250.382 C 358.088 249.737 357.221 249.185 356.27 248.794 C 355.32 248.403 354.284 248.173 353.243 248.173 C 352.327 248.173 351.411 248.349 350.555 248.654 C 349.7 248.96 348.905 249.395 348.234 249.912 C 347.692 250.361 347.196 250.906 346.774 251.513 C 346.352 252.12 346.005 252.788 345.76 253.482 L 342.356 253.482 L 338.951 253.482 L 338.951 245.938 L 338.951 238.394 L 340.008 238.629 L 341.065 238.864 L 340.1 238.021 L 339.135 237.177 L 342.022 236.481 L 344.908 235.784 L 341.172 235.784 L 337.435 235.784 L 334.942 233.888 L 332.449 231.991 L 333.872 233.888 L 335.294 235.784 L 327.889 235.784 L 320.484 235.784 L 320.484 232.566 L 320.484 229.347 C 321.206 229.113 321.896 228.78 322.522 228.379 C 323.149 227.977 323.713 227.507 324.181 226.998 C 324.704 226.358 325.165 225.589 325.495 224.756 C 325.825 223.923 326.024 223.027 326.024 222.13 C 326.024 221.122 325.784 220.118 325.373 219.196 C 324.962 218.274 324.381 217.434 323.7 216.755 C 322.997 216.11 322.131 215.558 321.18 215.167 C 320.23 214.777 319.195 214.547 318.154 214.547 C 317.105 214.547 316.071 214.782 315.125 215.173 C 314.179 215.565 313.321 216.114 312.621 216.742 C 311.963 217.417 311.378 218.255 310.959 219.179 C 310.539 220.103 310.284 221.112 310.284 222.13 C 310.284 223.019 310.473 223.91 310.797 224.742 C 311.121 225.573 311.58 226.344 312.121 226.991 C 312.59 227.51 313.157 227.984 313.786 228.386 C 314.415 228.788 315.107 229.118 315.825 229.349 L 315.825 232.567 L 315.825 235.784 L 303.38 235.784 L 290.935 235.784 L 290.935 232.567 L 290.935 229.349 C 291.653 229.119 292.344 228.791 292.972 228.39 C 293.601 227.989 294.167 227.516 294.636 226.996 C 295.177 226.349 295.637 225.577 295.961 224.744 C 296.286 223.912 296.476 223.019 296.476 222.13 C 296.476 221.113 296.228 220.111 295.816 219.193 C 295.404 218.276 294.827 217.445 294.168 216.769 C 293.468 216.141 292.603 215.585 291.65 215.187 C 290.697 214.788 289.656 214.547 288.606 214.547 C 287.556 214.547 286.522 214.782 285.576 215.173 C 284.63 215.565 283.771 216.114 283.071 216.743 C 282.413 217.418 281.829 218.256 281.41 219.18 C 280.991 220.103 280.736 221.113 280.736 222.13 C 280.736 223.018 280.924 223.909 281.247 224.74 C 281.57 225.572 282.029 226.343 282.571 226.99 C 283.04 227.509 283.607 227.983 284.236 228.386 C 284.865 228.788 285.557 229.118 286.276 229.349 L 286.276 232.567 L 286.276 235.784 L 278.906 235.784 L 271.536 235.784 L 273.179 233.694 L 274.822 231.603 L 271.891 233.833 L 268.959 236.063 C 268.894 236.104 268.83 236.146 268.774 236.186 C 268.717 236.227 268.668 236.266 268.629 236.299 L 268.591 236.333 L 268.552 236.367 L 268.551 236.367 L 268.551 236.368 L 268.378 236.52 L 268.204 236.672 L 268.007 236.531 L 267.809 236.39 L 267.809 236.704 L 267.809 237.017 L 266.755 237.94 L 265.7 238.863 L 266.755 238.629 L 267.809 238.394 L 267.809 245.938 L 267.809 253.482 L 264.404 253.482 L 260.998 253.482 C 260.754 252.789 260.407 252.121 259.986 251.515 C 259.565 250.909 259.069 250.365 258.527 249.916 C 257.859 249.402 257.064 248.966 256.208 248.659 C 255.351 248.352 254.433 248.173 253.517 248.173 C 252.467 248.173 251.434 248.408 250.488 248.799 C 249.542 249.191 248.683 249.74 247.983 250.369 C 247.325 251.044 246.741 251.881 246.322 252.805 C 245.902 253.729 245.647 254.738 245.647 255.756 C 245.647 256.774 245.895 257.777 246.308 258.694 C 246.72 259.612 247.297 260.443 247.955 261.118 C 248.655 261.747 249.52 262.303 250.473 262.701 C 251.426 263.099 252.467 263.34 253.517 263.34 C 254.434 263.34 255.351 263.162 256.206 262.856 C 257.061 262.55 257.855 262.115 258.523 261.601 C 259.065 261.152 259.561 260.606 259.983 259.999 C 260.405 259.392 260.753 258.724 260.997 258.03 L 264.403 258.03 L 267.809 258.03 L 267.809 269.914 L 267.809 281.798 L 264.403 281.798 L 260.997 281.798 C 260.753 281.105 260.407 280.438 259.986 279.832 C 259.565 279.225 259.069 278.68 258.527 278.231 C 257.859 277.718 257.064 277.283 256.208 276.975 C 255.352 276.668 254.434 276.489 253.517 276.489 C 252.468 276.489 251.435 276.724 250.488 277.116 C 249.542 277.508 248.683 278.057 247.983 278.686 C 247.325 279.361 246.741 280.198 246.322 281.122 C 245.902 282.045 245.647 283.055 245.647 284.072 C 245.647 285.081 245.889 286.086 246.301 287.008 C 246.712 287.929 247.293 288.768 247.969 289.445 C 248.671 290.09 249.537 290.643 250.488 291.034 C 251.439 291.425 252.475 291.655 253.517 291.655 C 254.434 291.655 255.351 291.477 256.206 291.171 C 257.061 290.865 257.855 290.43 258.523 289.916 C 259.065 289.467 259.561 288.922 259.983 288.315 C 260.405 287.708 260.753 287.04 260.997 286.346 L 264.403 286.346 L 267.809 286.346 L 267.809 293.883 L 267.809 301.42 L 266.747 301.178 L 265.684 300.935 L 266.645 301.781 L 267.605 302.627 L 264.526 303.336 L 261.447 304.044 L 265.377 304.044 L 269.307 304.044 L 271.831 306.012 L 274.355 307.98 L 272.899 306.012 L 271.442 304.044 L 278.859 304.044 L 286.276 304.044 L 286.276 307.26 L 286.276 310.476 C 285.558 310.707 284.867 311.036 284.238 311.437 C 283.61 311.839 283.044 312.313 282.575 312.832 C 282.036 313.478 281.576 314.251 281.251 315.084 C 280.926 315.918 280.736 316.811 280.736 317.698 C 280.736 318.706 280.978 319.711 281.389 320.633 C 281.801 321.555 282.381 322.394 283.058 323.072 C 283.761 323.717 284.627 324.27 285.577 324.661 C 286.528 325.052 287.564 325.282 288.606 325.282 C 289.648 325.282 290.682 325.054 291.631 324.664 C 292.58 324.274 293.445 323.724 294.147 323.079 C 294.824 322.401 295.406 321.559 295.819 320.636 C 296.232 319.712 296.476 318.706 296.476 317.698 C 296.476 316.812 296.289 315.921 295.966 315.089 C 295.643 314.257 295.184 313.485 294.641 312.836 C 294.172 312.317 293.605 311.843 292.976 311.44 C 292.346 311.038 291.654 310.707 290.935 310.476 L 290.935 307.26 L 290.935 304.044 L 303.38 304.044 L 315.825 304.044 L 315.825 307.26 L 315.825 310.476 C 315.108 310.707 314.418 311.036 313.79 311.438 C 313.162 311.839 312.596 312.312 312.127 312.831 C 311.587 313.478 311.126 314.25 310.8 315.083 C 310.475 315.916 310.284 316.81 310.284 317.698 C 310.284 318.707 310.527 319.711 310.938 320.633 C 311.35 321.555 311.931 322.394 312.607 323.071 C 313.309 323.716 314.175 324.269 315.126 324.66 C 316.077 325.052 317.113 325.282 318.154 325.282 C 319.195 325.282 320.229 325.054 321.178 324.664 C 322.127 324.274 322.991 323.723 323.694 323.078 C 324.371 322.401 324.953 321.56 325.366 320.637 C 325.78 319.713 326.024 318.707 326.024 317.698 C 326.024 316.81 325.835 315.918 325.511 315.086 C 325.187 314.255 324.728 313.484 324.187 312.837 C 323.718 312.318 323.151 311.844 322.522 311.441 C 321.893 311.039 321.202 310.708 320.484 310.476 L 320.484 307.26 L 320.484 304.044 L 327.902 304.044 L 335.32 304.044 L 333.894 305.976 L 332.467 307.908 L 335.156 305.823 L 337.845 303.738 C 337.901 303.703 337.953 303.667 338 303.632 C 338.047 303.598 338.088 303.566 338.12 303.538 L 339.59 302.259 L 341.06 300.98 L 340.006 301.211 L 338.951 301.442 L 338.951 293.894 L 338.951 286.346 L 342.357 286.346 L 345.763 286.346 C 346.011 287.041 346.361 287.707 346.781 288.31 C 347.202 288.914 347.693 289.457 348.224 289.905 C 348.889 290.406 349.681 290.843 350.539 291.155 C 351.396 291.468 352.319 291.655 353.243 291.655 C 354.284 291.655 355.318 291.427 356.267 291.037 C 357.217 290.648 358.082 290.097 358.784 289.452 C 359.461 288.775 360.043 287.934 360.456 287.011 C 360.869 286.087 361.113 285.081 361.113 284.072 C 361.113 283.055 360.865 282.052 360.452 281.135 C 360.039 280.218 359.462 279.386 358.804 278.711 C 358.104 278.083 357.238 277.527 356.285 277.129 C 355.332 276.73 354.292 276.489 353.243 276.489 Z M 353.243 252.721 C 353.732 252.721 354.166 252.793 354.55 252.945 C 354.933 253.097 355.266 253.329 355.55 253.649 C 355.881 253.916 356.106 254.214 356.249 254.56 C 356.393 254.906 356.453 255.3 356.453 255.756 C 356.453 256.213 356.381 256.617 356.227 256.974 C 356.073 257.331 355.836 257.64 355.505 257.907 C 355.221 258.227 354.899 258.448 354.527 258.589 C 354.155 258.73 353.732 258.791 353.243 258.791 C 352.766 258.791 352.352 258.723 351.979 258.576 C 351.606 258.429 351.274 258.202 350.957 257.885 C 350.627 257.585 350.395 257.275 350.247 256.929 C 350.098 256.584 350.032 256.202 350.032 255.756 C 350.032 255.311 350.099 254.928 350.249 254.582 C 350.398 254.237 350.629 253.927 350.957 253.627 C 351.275 253.307 351.608 253.081 351.98 252.934 C 352.353 252.788 352.765 252.721 353.243 252.721 Z M 314.943 222.13 C 314.943 221.684 315.01 221.302 315.16 220.956 C 315.309 220.61 315.54 220.3 315.868 220 C 316.186 219.681 316.519 219.455 316.891 219.308 C 317.264 219.162 317.676 219.095 318.154 219.095 C 318.632 219.095 319.045 219.163 319.418 219.31 C 319.791 219.457 320.124 219.684 320.44 220.001 C 320.771 220.301 321.002 220.611 321.15 220.957 C 321.299 221.302 321.365 221.684 321.365 222.13 C 321.365 222.575 321.297 222.957 321.148 223.304 C 320.998 223.65 320.766 223.96 320.438 224.261 C 320.121 224.58 319.789 224.807 319.417 224.953 C 319.045 225.1 318.632 225.166 318.154 225.166 C 317.677 225.166 317.263 225.098 316.89 224.95 C 316.517 224.803 316.184 224.576 315.867 224.259 C 315.539 223.959 315.308 223.649 315.159 223.304 C 315.01 222.958 314.943 222.575 314.943 222.13 Z M 285.395 222.13 C 285.395 221.684 285.462 221.302 285.612 220.956 C 285.761 220.611 285.993 220.301 286.322 220.001 C 286.639 219.682 286.971 219.456 287.344 219.309 C 287.716 219.162 288.129 219.095 288.606 219.095 C 289.083 219.095 289.496 219.163 289.869 219.31 C 290.242 219.458 290.575 219.684 290.891 220.001 C 291.219 220.301 291.451 220.611 291.6 220.957 C 291.75 221.303 291.817 221.685 291.817 222.13 C 291.817 222.575 291.749 222.957 291.599 223.303 C 291.449 223.65 291.218 223.96 290.889 224.261 C 290.573 224.578 290.24 224.804 289.868 224.951 C 289.496 225.098 289.083 225.166 288.606 225.166 C 288.129 225.166 287.716 225.098 287.343 224.951 C 286.971 224.804 286.639 224.577 286.323 224.261 C 285.994 223.96 285.762 223.65 285.612 223.304 C 285.462 222.958 285.395 222.575 285.395 222.13 Z M 253.517 258.791 C 253.04 258.791 252.627 258.723 252.255 258.576 C 251.882 258.429 251.549 258.202 251.233 257.885 C 250.902 257.584 250.67 257.275 250.521 256.929 C 250.372 256.583 250.306 256.202 250.306 255.756 C 250.306 255.312 250.373 254.929 250.523 254.583 C 250.673 254.237 250.904 253.927 251.233 253.627 C 251.549 253.31 251.882 253.084 252.255 252.936 C 252.627 252.789 253.04 252.721 253.517 252.721 C 253.994 252.721 254.407 252.789 254.78 252.936 C 255.153 253.084 255.486 253.31 255.802 253.627 C 256.131 253.927 256.362 254.237 256.511 254.583 C 256.661 254.929 256.728 255.311 256.728 255.756 C 256.728 256.201 256.66 256.583 256.511 256.929 C 256.361 257.276 256.13 257.586 255.802 257.886 C 255.485 258.203 255.152 258.429 254.78 258.576 C 254.407 258.723 253.994 258.791 253.517 258.791 Z M 253.517 287.108 C 253.04 287.108 252.627 287.041 252.254 286.894 C 251.881 286.747 251.548 286.521 251.233 286.203 C 250.902 285.903 250.67 285.593 250.521 285.247 C 250.372 284.901 250.306 284.518 250.306 284.072 C 250.306 283.627 250.373 283.244 250.523 282.898 C 250.673 282.552 250.904 282.242 251.233 281.942 C 251.549 281.625 251.882 281.399 252.255 281.252 C 252.627 281.105 253.04 281.037 253.517 281.037 C 253.994 281.037 254.407 281.105 254.78 281.252 C 255.153 281.399 255.486 281.626 255.802 281.942 C 256.133 282.243 256.364 282.553 256.513 282.899 C 256.662 283.244 256.728 283.626 256.728 284.072 C 256.728 284.518 256.661 284.901 256.511 285.247 C 256.362 285.594 256.13 285.904 255.802 286.204 C 255.486 286.521 255.153 286.747 254.78 286.894 C 254.407 287.04 253.994 287.108 253.517 287.108 Z M 291.817 317.698 C 291.817 318.144 291.75 318.527 291.6 318.874 C 291.45 319.22 291.219 319.53 290.89 319.83 C 290.573 320.149 290.24 320.374 289.868 320.52 C 289.495 320.667 289.083 320.733 288.606 320.733 C 288.13 320.733 287.716 320.665 287.343 320.518 C 286.969 320.371 286.636 320.145 286.321 319.829 C 285.99 319.528 285.759 319.218 285.61 318.872 C 285.461 318.526 285.395 318.144 285.395 317.698 C 285.395 317.253 285.462 316.87 285.612 316.523 C 285.761 316.177 285.993 315.867 286.321 315.567 C 286.638 315.248 286.971 315.022 287.344 314.876 C 287.716 314.73 288.129 314.663 288.606 314.663 C 289.083 314.663 289.496 314.731 289.869 314.878 C 290.242 315.025 290.575 315.251 290.891 315.568 C 291.22 315.868 291.451 316.177 291.6 316.523 C 291.75 316.869 291.817 317.252 291.817 317.698 Z M 321.365 317.698 C 321.365 318.145 321.298 318.528 321.148 318.874 C 320.999 319.22 320.767 319.53 320.439 319.83 C 320.123 320.147 319.791 320.372 319.418 320.519 C 319.045 320.666 318.632 320.733 318.154 320.733 C 317.677 320.733 317.263 320.665 316.89 320.518 C 316.516 320.371 316.183 320.145 315.868 319.829 C 315.538 319.528 315.306 319.219 315.158 318.873 C 315.009 318.527 314.943 318.145 314.943 317.698 C 314.943 317.252 315.01 316.869 315.16 316.523 C 315.309 316.177 315.541 315.867 315.869 315.567 C 316.185 315.248 316.518 315.022 316.891 314.876 C 317.263 314.73 317.676 314.663 318.154 314.663 C 318.632 314.663 319.045 314.731 319.418 314.878 C 319.791 315.026 320.124 315.252 320.441 315.569 C 320.769 315.868 321 316.177 321.149 316.523 C 321.298 316.869 321.365 317.252 321.365 317.698 Z M 272.468 299.496 L 272.468 269.915 L 272.468 240.333 L 303.38 240.333 L 334.292 240.333 L 334.292 269.915 L 334.292 299.496 L 303.38 299.496 L 272.468 299.496 Z M 353.243 287.108 C 352.766 287.108 352.352 287.041 351.979 286.894 C 351.606 286.747 351.273 286.521 350.957 286.203 C 350.627 285.903 350.395 285.594 350.247 285.248 C 350.098 284.902 350.032 284.519 350.032 284.072 C 350.032 283.627 350.1 283.244 350.249 282.897 C 350.399 282.551 350.63 282.241 350.958 281.94 C 351.275 281.624 351.607 281.398 351.98 281.252 C 352.353 281.105 352.766 281.037 353.243 281.037 C 353.732 281.037 354.167 281.109 354.55 281.261 C 354.934 281.412 355.267 281.644 355.55 281.964 C 355.881 282.231 356.106 282.529 356.249 282.875 C 356.393 283.221 356.453 283.615 356.453 284.072 C 356.453 284.519 356.386 284.902 356.237 285.248 C 356.087 285.594 355.856 285.904 355.528 286.203 C 355.211 286.522 354.879 286.748 354.506 286.895 C 354.133 287.041 353.721 287.108 353.243 287.108 Z" style="stroke-width: 19px; stroke-miterlimit: 25;"/>
  <path d="M 304.943 367.862 L 302.385 344.239 L 302.233 344.121 L 283.013 359.024 L 297.022 340.058 L 291.574 335.81 C 290.225 336.123 288.765 336.333 287.572 336.333 C 285.501 336.333 282.655 335.632 280.927 334.997 C 279.229 334.217 276.659 332.484 275.302 331.336 C 274.079 330.002 272.52 327.737 271.678 326.052 C 270.988 324.308 270.202 321.369 270.202 319.249 C 270.202 319.215 270.202 319.181 270.203 319.146 L 265.007 315.095 L 176.706 315.095 L 243.081 299.833 C 241.99 299.115 240.935 298.32 240.213 297.709 C 238.993 296.38 237.437 294.122 236.593 292.433 C 236.294 291.68 235.978 290.705 235.715 289.671 L 230.277 284.883 L 235.12 285.991 C 235.116 285.866 235.113 285.743 235.113 285.623 C 235.113 283.443 235.937 280.473 236.639 278.744 C 236.875 278.277 237.197 277.737 237.564 277.173 L 240.56 281.223 C 240.628 281.026 240.699 280.841 240.773 280.67 C 241.356 279.325 242.697 277.651 243.638 276.642 C 244.053 276.292 244.579 275.899 245.142 275.513 L 241.367 272.57 C 241.089 272.776 240.83 272.978 240.599 273.171 C 239.768 274.089 238.516 275.711 237.564 277.173 L 235.424 274.28 L 220.425 285.691 L 232.498 270.326 L 224.33 259.286 L 234.775 267.429 L 236.91 264.711 C 237.781 266.293 239.087 268.159 240.118 269.3 C 240.374 269.514 240.681 269.759 241.022 270.021 L 239.542 271.146 L 241.367 272.57 C 241.867 272.2 242.43 271.816 243.013 271.447 C 242.305 270.975 241.612 270.473 241.022 270.021 L 244.779 267.162 C 244.358 266.863 243.971 266.567 243.649 266.296 C 242.715 265.333 241.352 263.609 240.762 262.237 C 240.552 261.751 240.366 261.144 240.214 260.507 L 236.91 264.711 C 236.803 264.516 236.702 264.325 236.61 264.14 C 235.917 262.412 235.113 259.465 235.113 257.307 C 235.113 257.109 235.12 256.905 235.133 256.695 L 230.438 257.737 L 235.771 253.072 C 236.036 252.073 236.348 251.144 236.638 250.429 C 237.488 248.749 239.447 246.126 240.599 244.854 C 241.916 243.755 244.14 242.348 245.825 241.57 C 246.968 241.147 248.621 240.687 250.221 240.429 L 257.275 234.258 L 257.275 219.513 L 266.57 226.133 L 263.954 228.418 L 263.958 228.418 L 261.837 230.267 L 261.462 230.595 C 261.614 230.47 261.979 230.186 262.218 230.007 C 262.429 229.861 262.326 229.933 262.383 229.894 L 265.105 227.823 L 266.961 226.411 L 270.981 229.274 L 270.987 229.273 L 266.975 226.401 L 270.206 223.942 C 270.203 223.854 270.202 223.767 270.202 223.681 C 270.202 221.501 271.026 218.53 271.725 216.806 C 272.573 215.128 274.534 212.503 275.687 211.228 C 277.004 210.129 279.228 208.722 280.913 207.944 C 282.621 207.311 285.469 206.598 287.572 206.598 C 288.938 206.598 290.615 206.901 292.094 207.289 L 297.029 203.534 L 282.882 184.674 L 302.349 199.487 L 327.151 180.617 L 308.591 204.237 L 312.595 207.284 C 314.074 206.899 315.754 206.598 317.12 206.598 C 319.191 206.598 322.035 207.299 323.759 207.932 C 325.456 208.71 328.013 210.428 329.374 211.579 C 330.607 212.919 332.248 215.156 333.016 216.879 C 333.782 218.598 334.49 221.569 334.49 223.681 C 334.49 223.766 334.489 223.853 334.487 223.942 L 339.603 227.835 L 423.676 227.835 L 361.262 242.909 C 362.467 243.67 363.675 244.54 364.474 245.215 C 365.699 246.55 367.331 248.777 368.098 250.495 C 368.411 251.194 368.714 252.102 368.964 253.076 L 374.344 257.776 L 369.562 256.712 C 369.573 256.917 369.579 257.115 369.579 257.307 C 369.579 259.435 368.784 262.388 368.092 264.131 C 367.879 264.556 367.603 265.034 367.289 265.534 L 364.222 261.446 C 364.127 261.752 364.024 262.037 363.916 262.288 C 363.302 263.711 362.107 265.104 361.042 266.237 C 360.689 266.533 360.307 266.848 359.906 267.16 L 363.716 270.059 C 363.114 270.53 362.397 271.03 361.652 271.502 C 362.246 271.893 362.831 272.301 363.355 272.686 L 359.615 275.586 C 360.106 275.941 360.578 276.31 361.012 276.672 C 362.082 277.848 363.247 279.396 363.989 280.787 C 364.031 280.92 364.072 281.059 364.114 281.203 L 367.155 277.085 C 367.518 277.669 367.839 278.249 368.08 278.785 C 368.844 280.48 369.579 283.466 369.579 285.623 C 369.579 285.851 369.57 286.089 369.553 286.334 L 374.314 285.291 L 368.886 290.013 C 368.641 290.924 368.36 291.772 368.094 292.442 C 367.251 294.128 365.402 296.666 364.178 297.998 C 362.814 299.152 360.54 300.598 358.838 301.377 C 357.705 301.792 356.1 302.233 354.548 302.488 L 344.792 310.977 L 343.342 312.238 C 343.104 312.436 342.782 312.692 342.584 312.843 C 342.39 312.981 342.505 312.899 342.461 312.929 L 334.489 319.111 C 334.49 319.157 334.49 319.203 334.49 319.249 C 334.49 321.378 333.698 324.323 333.002 326.07 C 332.159 327.756 330.307 330.296 329.083 331.629 C 327.722 332.779 325.481 334.293 323.755 335.002 C 322.05 335.703 319.184 336.333 317.12 336.333 C 315.894 336.333 314.399 336.088 313.023 335.755 L 308.263 339.446 L 308.128 340.605 L 322.312 359.776 L 307.259 348.039 Z M 353.975 283.544 C 354.658 285.584 355.196 287 355.402 286.986 C 355.312 287.001 354.515 287.135 353.813 287.258 L 354.258 289.686 L 357.408 288.996 C 357.602 288.716 357.787 288.445 357.931 288.227 C 358.094 287.53 358.498 286.008 358.498 285.623 C 358.498 285.263 358.11 283.779 357.941 283.053 C 357.52 282.415 356.817 281.415 356.447 280.906 C 356.059 280.628 355.452 280.168 354.922 279.856 Z M 250.294 289.459 L 251.002 286.504 C 251.022 286.421 251.159 286.7 251.176 286.786 C 251.247 286.832 251.427 287.018 251.441 287.079 C 251.511 287.093 251.85 287.355 251.943 287.444 C 251.936 287.424 251.996 287.428 252.079 287.443 C 251.748 286.452 251.423 285.481 251.112 284.582 C 251.069 284.681 251.013 284.783 251.001 284.746 L 249.769 280.979 C 249.624 280.643 249.492 280.37 249.377 280.172 C 248.95 280.447 248.512 280.732 248.226 280.923 C 247.864 281.422 247.174 282.405 246.757 283.036 C 246.584 283.767 246.194 285.25 246.194 285.623 C 246.194 285.986 246.586 287.482 246.756 288.212 C 246.857 288.364 246.977 288.542 247.107 288.731 Z M 252.483 287.54 C 252.49 287.539 252.919 287.36 253.066 287.379 C 253.122 287.323 253.265 287.222 253.305 287.236 C 253.424 287.055 253.833 286.601 253.9 286.568 C 253.909 286.382 254.113 285.769 254.113 285.623 C 254.113 285.52 253.862 284.859 253.9 284.707 C 253.81 284.659 253.596 284.359 253.624 284.294 C 253.506 284.241 253.121 283.912 253.053 283.818 C 252.911 283.802 252.492 283.71 252.483 283.706 L 252.483 287.54 C 252.483 287.54 252.483 287.54 252.483 287.54 Z M 251.003 258.188 C 251.02 258.125 251.145 258.407 251.164 258.483 C 251.227 258.53 251.407 258.704 251.435 258.763 C 251.489 258.76 251.842 259.032 251.945 259.128 C 251.939 259.109 251.997 259.113 252.077 259.127 C 251.746 258.139 251.419 257.172 251.108 256.276 C 251.065 256.371 251.013 256.466 251.001 256.43 L 250.009 253.396 L 247.231 254.012 C 247.055 254.266 246.889 254.51 246.757 254.71 C 246.592 255.411 246.194 256.92 246.194 257.307 C 246.194 257.683 246.588 259.179 246.758 259.901 C 247.164 260.516 247.86 261.503 248.232 262.014 C 248.608 262.265 249.226 262.67 249.742 263.001 Z M 252.483 259.224 C 252.489 259.223 252.92 259.044 253.064 259.064 C 253.119 259.007 253.265 258.906 253.305 258.919 C 253.424 258.739 253.835 258.282 253.901 258.25 C 253.908 258.069 254.113 257.453 254.113 257.307 C 254.113 257.185 253.861 256.539 253.893 256.373 C 253.812 256.321 253.64 256.078 253.674 256.035 C 253.53 255.94 253.155 255.607 253.086 255.508 C 252.934 255.49 252.498 255.391 252.483 255.391 C 252.483 255.391 252.483 255.391 252.483 255.391 L 252.483 259.224 C 252.483 259.224 252.483 259.224 252.483 259.224 Z M 354.604 253.387 L 353.688 256.43 C 353.67 256.49 353.545 256.209 353.525 256.131 C 353.46 256.083 353.271 255.9 353.249 255.843 C 353.192 255.846 352.785 255.557 352.714 255.478 C 352.687 255.475 352.648 255.47 352.604 255.463 C 352.937 256.463 353.265 257.442 353.577 258.349 C 353.62 258.252 353.675 258.153 353.684 258.195 L 353.958 259.439 C 354.502 260.97 354.977 262.184 355.313 262.759 C 355.741 262.483 356.182 262.196 356.471 262.003 C 356.838 261.497 357.528 260.517 357.933 259.905 C 358.104 259.178 358.498 257.681 358.498 257.307 C 358.498 256.944 358.11 255.465 357.938 254.73 C 357.802 254.524 357.635 254.278 357.459 254.022 Z M 351.649 255.549 C 351.58 255.624 351.382 255.76 351.333 255.735 C 351.261 255.879 350.865 256.308 350.765 256.362 C 350.855 256.35 350.579 257.201 350.579 257.307 C 350.579 257.393 350.741 258.087 350.759 258.232 C 350.815 258.27 351.046 258.545 351.06 258.628 C 351.167 258.651 351.609 259.01 351.66 259.084 C 351.813 259.099 352.189 259.214 352.208 259.223 C 352.209 259.223 352.209 259.223 352.209 259.223 L 352.209 255.392 C 352.192 255.405 351.791 255.566 351.649 255.549 Z M 306.322 283.544 L 308.137 282.942 C 308.049 282.862 307.949 282.773 307.829 282.67 C 307.77 282.61 307.715 282.555 307.663 282.504 Z M 307.226 284.041 L 305.291 285.23 L 305.291 285.618 L 306.125 285.785 L 305.291 286.391 L 305.291 286.393 L 306.127 285.785 L 308.472 286.253 L 307.461 288.252 C 307.464 288.251 307.467 288.251 307.47 288.25 L 308.478 286.254 L 309.916 286.541 C 309.871 286.229 309.777 285.964 309.618 285.469 C 309.49 285.07 309.412 284.821 309.315 284.598 L 308.478 286.254 L 308.472 286.253 L 309.312 284.592 C 309.215 284.37 309.098 284.173 308.894 283.88 C 308.859 283.824 308.827 283.773 308.796 283.724 Z M 304.028 287.313 L 304.026 287.311 L 301.662 289.03 C 301.664 289.03 301.666 289.03 301.668 289.03 Z M 305.291 287.393 C 305.359 286.95 305.415 287.103 305.291 286.902 Z M 306.127 285.785 L 306.125 285.785 L 307.558 284.742 L 308.811 283.831 Z M 302.447 264.964 L 302.957 264.593 C 302.673 264.441 302.794 264.533 302.35 264.533 C 301.829 264.533 302.049 264.415 301.565 264.677 Z M 302.45 264.964 L 304.205 265.534 C 304.082 265.224 304.155 265.288 303.946 265.118 C 303.552 264.662 303.825 264.899 303.196 264.723 C 303.094 264.667 303.018 264.626 302.959 264.594 Z M 304.03 287.308 L 304.031 287.31 L 305.152 286.494 C 305.151 286.494 305.151 286.494 305.151 286.493 Z M 306.717 281.904 C 306.709 281.914 306.752 281.866 306.717 281.904 Z M 328.417 229.348 C 327.777 230.395 326.928 231.561 326.215 232.384 L 328.417 232.384 Z M 275.742 311.815 L 275.742 311.818 L 275.743 311.818 Z M 276.275 311.696 L 276.275 313.585 C 276.731 312.839 277.29 312.036 277.832 311.338 Z M 289.255 315.095 L 289.261 315.095 L 287.551 312.785 C 287.549 312.785 287.547 312.785 287.546 312.785 Z M 276.275 311.692 L 277.835 311.333 C 278.055 311.05 278.271 310.784 278.477 310.547 L 276.275 310.547 Z M 364.17 269.69 C 365.087 268.693 366.355 267.019 367.289 265.534 L 369.234 268.127 L 379.853 259.894 L 371.52 271.175 L 379.948 282.41 L 369.24 274.262 L 367.155 277.085 C 366.362 275.807 365.369 274.512 364.573 273.631 C 364.241 273.354 363.823 273.03 363.355 272.686 L 365.244 271.221 L 363.716 270.059 C 363.876 269.933 364.028 269.81 364.17 269.69 Z M 290.049 227.835 L 288.335 230.016 C 288.337 230.016 288.339 230.015 288.34 230.015 L 290.054 227.835 Z M 266.584 226.121 L 266.975 226.401 L 266.961 226.411 L 266.57 226.133 Z M 350.764 284.677 C 350.855 284.663 350.579 285.517 350.579 285.623 C 350.579 285.725 350.744 286.42 350.764 286.571 C 350.814 286.607 350.985 286.812 351.001 286.878 C 351.136 286.957 351.552 287.321 351.612 287.374 C 351.654 287.37 351.716 287.372 351.784 287.378 C 351.465 286.419 351.15 285.48 350.85 284.608 C 350.814 284.641 350.784 284.666 350.764 284.677 Z M 333.493 313.687 C 333.493 313.687 333.493 313.688 333.494 313.688 L 341.006 312.042 L 339.949 312.273 Z M 348.569 302.248 C 348.568 302.248 348.566 302.248 348.565 302.247 L 342.758 310.114 L 342.758 310.116 Z M 340.503 313.169 L 339.075 315.103 L 342.44 310.547 L 342.438 310.547 Z M 269.312 313.297 L 271.188 313.726 C 271.189 313.724 271.189 313.722 271.19 313.721 L 269.321 313.295 L 271.55 312.782 C 271.55 312.781 271.551 312.781 271.551 312.78 L 269.318 313.294 L 268.54 313.117 L 268.536 313.119 L 269.309 313.296 L 265.624 314.145 L 262.542 314.853 Z M 263.602 311.992 L 263.267 311.915 L 263.267 311.915 L 268.246 313.053 L 268.248 313.05 Z M 294.742 319.11 L 295.35 319.249 L 298.069 319.249 L 295.9 317.339 C 295.531 317.484 295.144 317.633 294.742 317.785 Z M 263.267 311.915 L 263.267 311.915 L 262.533 311.747 Z M 348.63 240.662 C 348.631 240.662 348.631 240.662 348.632 240.662 L 342.758 232.832 L 342.758 232.832 Z M 340.438 229.738 L 341.86 231.635 L 342.422 232.384 L 342.422 232.384 Z M 309.95 223.995 L 308.537 223.681 L 308.443 223.681 L 308.652 225.618 L 308.665 225.629 C 309.072 225.47 309.502 225.305 309.95 225.136 Z M 355.41 286.984 C 355.407 286.985 355.405 286.986 355.402 286.986 C 355.407 286.985 355.41 286.984 355.41 286.984 Z M 301.346 213.458 C 301.697 213.945 302.046 214.46 302.371 214.974 C 302.856 214.245 303.404 213.49 303.929 212.812 L 303.937 212.743 L 302.946 211.422 Z M 270.996 229.279 L 270.991 229.28 L 271.274 229.482 C 271.273 229.48 271.273 229.478 271.272 229.476 Z M 300.576 330.398 L 300.94 330.889 L 300.849 330.049 C 300.758 330.168 300.667 330.284 300.576 330.398 Z M 269.321 313.295 L 269.312 313.297 L 269.309 313.296 L 269.318 313.294 Z M 355.672 263.118 C 355.672 263.118 355.667 263.119 355.657 263.121 C 355.662 263.121 355.667 263.12 355.672 263.118 Z M 249.02 279.813 C 249.02 279.813 249.025 279.812 249.034 279.81 C 249.03 279.81 249.025 279.811 249.02 279.813 Z" style="fill: none;"/>
  <rect id="rect-1" style="fill: none;" width="154.536" height="145.176" x="269.752" y="244.829"/>
  <g transform="matrix(0.085356, 0, 0, 0.091337, 226.948578, 179.370087)" style="">
    <path d="M435.831,79.26c-18.205,21.971-36.706,38.107-64.806,21.116c-24.761-14.96-42.393-34.3-73.796-31.212 c-24.459,2.385-44.325,22.91-51.285,45.407c-1.005,3.251-1.33,6.626-1.312,10.083c-18.891-0.422-37.713,6.798-51.527,21.007 l-0.544-0.405L15.552,383.381l0.127,0.089c-0.641,0.779-1.318,1.507-1.93,2.34c-22.934,30.843-16.518,74.452,14.325,97.374 c30.857,22.946,74.461,16.521,97.395-14.327c0.612-0.828,1.12-1.685,1.676-2.524l0.127,0.101l177.016-238.121l-0.544-0.405 c16.709-30.047,9.055-68.523-19.287-89.592c-6.768-5.036-14.156-8.612-21.799-10.858c0.092-11.892,6.324-22.315,15.338-30.39 c14.239-12.759,33.178-12.135,49.645-4.604c23.572,10.778,40.282,35.946,68.943,34.208c23.52-1.427,39.727-19.585,53.818-36.575 C457.884,81.069,443.272,70.279,435.831,79.26z M264.448,141.203c4.285,1.882,8.494,4.262,12.489,7.231 c23.224,17.266,30.766,46.42,16.863,65.122c-13.901,18.708-44.005,19.884-67.223,2.621c-23.232-17.268-30.766-46.423-16.864-65.134 c8.08-10.87,21.639-15.767,36.142-14.623c2.751,15.513,8.346,31.413-1.768,43.518c-7.512,9.002,7.093,19.787,14.567,10.834 C271.264,175.686,267.643,158.592,264.448,141.203z M425.848,60.872l-14.653-30.074l19.837,26.944L425.848,60.872z M486.084,45.885 l-22.65,27.11l-4.291-4.273L486.084,45.885z M527.737,132.711l-61.702-31.371l2.973-5.267L527.737,132.711z M459.403,107.455 l1.424,78.731l-7.471-78.383L459.403,107.455z"/>
  </g>
  <g transform="matrix(0.085356, 0, 0, 0.091337, 231.619781, 179.370087)" style=""/>
  <g transform="matrix(0.085356, 0, 0, 0.091337, 231.619781, 179.370087)" style=""/>
  <g transform="matrix(0.085356, 0, 0, 0.091337, 231.619781, 179.370087)" style=""/>
  <g transform="matrix(0.085356, 0, 0, 0.091337, 231.619781, 179.370087)" style=""/>
  <g transform="matrix(0.085356, 0, 0, 0.091337, 231.619781, 179.370087)" style=""/>
  <g transform="matrix(0.085356, 0, 0, 0.091337, 231.619781, 179.370087)" style=""/>
  <g transform="matrix(0.085356, 0, 0, 0.091337, 231.619781, 179.370087)" style=""/>
  <g transform="matrix(0.085356, 0, 0, 0.091337, 231.619781, 179.370087)" style=""/>
  <g transform="matrix(0.085356, 0, 0, 0.091337, 231.619781, 179.370087)" style=""/>
  <g transform="matrix(0.085356, 0, 0, 0.091337, 231.619781, 179.370087)" style=""/>
  <g transform="matrix(0.085356, 0, 0, 0.091337, 231.619781, 179.370087)" style=""/>
  <g transform="matrix(0.085356, 0, 0, 0.091337, 231.619781, 179.370087)" style=""/>
  <g transform="matrix(0.085356, 0, 0, 0.091337, 231.619781, 179.370087)" style=""/>
  <g transform="matrix(0.085356, 0, 0, 0.091337, 231.619781, 179.370087)" style=""/>
  <g transform="matrix(0.085356, 0, 0, 0.091337, 231.619781, 179.370087)" style=""/>
</svg>